<svg xmlns="http://www.w3.org/2000/svg" xmlns:xlink="http://www.w3.org/1999/xlink" width="800" zoomAndPan="magnify" viewBox="0 0 600 296.250004" height="395" preserveAspectRatio="xMidYMid meet" version="1.0"><defs><g/><clipPath id="438805b59d"><path d="M 56 212 L 544 212 L 544 295.5 L 56 295.5 Z M 56 212 " clip-rule="nonzero"/></clipPath></defs><g clip-path="url(#438805b59d)"><path fill="#032363" d="M 56.574219 212.066406 L 543.402344 212.066406 L 543.402344 301.605469 L 56.574219 301.605469 L 56.574219 212.066406 " fill-opacity="1" fill-rule="nonzero"/></g><g fill="#efbc5c" fill-opacity="1"><g transform="translate(85.842306, 276.377516)"><g><path d="M 3.25 0 L 3.25 -45.421875 L 9.734375 -45.421875 L 9.734375 -25.953125 L 29.203125 -25.953125 L 29.203125 -45.421875 L 35.6875 -45.421875 L 35.6875 0 L 29.203125 0 L 29.203125 -19.46875 L 9.734375 -19.46875 L 9.734375 0 Z M 3.25 0 "/></g></g></g><g fill="#efbc5c" fill-opacity="1"><g transform="translate(134.510708, 276.377516)"><g><path d="M 3.25 0 L 3.25 -38.9375 L 9.734375 -38.9375 L 9.734375 -19.46875 L 29.203125 -19.46875 L 29.203125 -38.9375 L 35.6875 -38.9375 L 35.6875 0 L 29.203125 0 L 29.203125 -12.984375 L 9.734375 -12.984375 L 9.734375 0 Z M 9.734375 -38.9375 L 9.734375 -45.421875 L 29.203125 -45.421875 L 29.203125 -38.9375 Z M 9.734375 -38.9375 "/></g></g></g><g fill="#efbc5c" fill-opacity="1"><g transform="translate(183.17911, 276.377516)"><g><path d="M 3.25 -6.484375 L 3.25 -38.9375 L 9.734375 -38.9375 L 9.734375 -6.484375 Z M 9.734375 0 L 9.734375 -6.484375 L 29.203125 -6.484375 L 29.203125 0 Z M 9.734375 -38.9375 L 9.734375 -45.421875 L 29.203125 -45.421875 L 29.203125 -38.9375 Z M 29.203125 -6.484375 L 29.203125 -12.984375 L 35.6875 -12.984375 L 35.6875 -6.484375 Z M 29.203125 -32.4375 L 29.203125 -38.9375 L 35.6875 -38.9375 L 35.6875 -32.4375 Z M 29.203125 -32.4375 "/></g></g></g><g fill="#efbc5c" fill-opacity="1"><g transform="translate(231.847512, 276.377516)"><g><path d="M 3.25 0 L 3.25 -45.421875 L 9.734375 -45.421875 L 9.734375 -25.953125 L 22.71875 -25.953125 L 22.71875 -19.46875 L 9.734375 -19.46875 L 9.734375 0 Z M 22.71875 -12.984375 L 22.71875 -19.46875 L 29.203125 -19.46875 L 29.203125 -12.984375 Z M 22.71875 -25.953125 L 22.71875 -32.4375 L 29.203125 -32.4375 L 29.203125 -25.953125 Z M 29.203125 0 L 29.203125 -12.984375 L 35.6875 -12.984375 L 35.6875 0 Z M 29.203125 -32.4375 L 29.203125 -45.421875 L 35.6875 -45.421875 L 35.6875 -32.4375 Z M 29.203125 -32.4375 "/></g></g></g><g fill="#efbc5c" fill-opacity="1"><g transform="translate(280.515914, 276.377516)"><g><path d="M 3.25 0 L 3.25 -38.9375 L 9.734375 -38.9375 L 9.734375 -19.46875 L 29.203125 -19.46875 L 29.203125 -38.9375 L 35.6875 -38.9375 L 35.6875 0 L 29.203125 0 L 29.203125 -12.984375 L 9.734375 -12.984375 L 9.734375 0 Z M 9.734375 -38.9375 L 9.734375 -45.421875 L 29.203125 -45.421875 L 29.203125 -38.9375 Z M 9.734375 -38.9375 "/></g></g></g><g fill="#efbc5c" fill-opacity="1"><g transform="translate(329.184316, 276.377516)"><g><path d="M 16.21875 0 L 16.21875 -38.9375 L 3.25 -38.9375 L 3.25 -45.421875 L 35.6875 -45.421875 L 35.6875 -38.9375 L 22.71875 -38.9375 L 22.71875 0 Z M 16.21875 0 "/></g></g></g><g fill="#efbc5c" fill-opacity="1"><g transform="translate(377.852718, 276.377516)"><g><path d="M 3.25 0 L 3.25 -45.421875 L 9.734375 -45.421875 L 9.734375 -25.953125 L 29.203125 -25.953125 L 29.203125 -45.421875 L 35.6875 -45.421875 L 35.6875 0 L 29.203125 0 L 29.203125 -19.46875 L 9.734375 -19.46875 L 9.734375 0 Z M 3.25 0 "/></g></g></g><g fill="#efbc5c" fill-opacity="1"><g transform="translate(426.52112, 276.377516)"><g><path d="M 29.203125 -6.484375 L 29.203125 0 L 9.734375 0 L 9.734375 -6.484375 Z M 3.25 -6.484375 L 3.25 -38.9375 L 9.734375 -38.9375 L 9.734375 -6.484375 Z M 9.734375 -38.9375 L 9.734375 -45.421875 L 29.203125 -45.421875 L 29.203125 -38.9375 Z M 29.203125 -6.484375 L 29.203125 -38.9375 L 35.6875 -38.9375 L 35.6875 -6.484375 Z M 29.203125 -6.484375 "/></g></g></g><g fill="#efbc5c" fill-opacity="1"><g transform="translate(475.189522, 276.377516)"><g><path d="M 29.203125 0 L 29.203125 -19.46875 L 22.71875 -19.46875 L 22.71875 -25.953125 L 29.203125 -25.953125 L 29.203125 -45.421875 L 35.6875 -45.421875 L 35.6875 0 Z M 3.25 0 L 3.25 -45.421875 L 9.734375 -45.421875 L 9.734375 -38.9375 L 16.21875 -38.9375 L 16.21875 -32.4375 L 9.734375 -32.4375 L 9.734375 0 Z M 16.21875 -25.953125 L 16.21875 -32.4375 L 22.71875 -32.4375 L 22.71875 -25.953125 Z M 16.21875 -25.953125 "/></g></g></g><g fill="#efbc5c" fill-opacity="1"><g transform="translate(523.869737, 276.377516)"><g/></g></g><g fill="#ffffe4" fill-opacity="1"><g transform="translate(74.401549, 73.237662)"><g><path d="M 42.90625 -1.140625 L 42.90625 -24.6875 L 13.515625 -24.6875 L 13.515625 -1.140625 C 13.515625 -0.378906 13.140625 0 12.390625 0 L 8.578125 0 C 7.828125 0 7.453125 -0.378906 7.453125 -1.140625 L 7.453125 -54.40625 C 7.453125 -55.15625 7.828125 -55.53125 8.578125 -55.53125 L 12.390625 -55.53125 C 13.140625 -55.53125 13.515625 -55.15625 13.515625 -54.40625 L 13.515625 -30.84375 L 42.90625 -30.84375 L 42.90625 -54.40625 C 42.90625 -55.15625 43.28125 -55.53125 44.03125 -55.53125 L 47.921875 -55.53125 C 48.679688 -55.53125 49.0625 -55.15625 49.0625 -54.40625 L 49.0625 -1.140625 C 49.0625 -0.378906 48.679688 0 47.921875 0 L 44.03125 0 C 43.28125 0 42.90625 -0.378906 42.90625 -1.140625 Z M 42.90625 -1.140625 "/></g></g></g><g fill="#ffffe4" fill-opacity="1"><g transform="translate(130.736591, 73.237662)"><g><path d="M 35.78125 -55.53125 C 36.101562 -55.53125 36.410156 -55.421875 36.703125 -55.203125 C 37.003906 -54.992188 37.207031 -54.753906 37.3125 -54.484375 L 48.578125 -26.3125 C 48.679688 -26.039062 48.773438 -25.6875 48.859375 -25.25 C 48.941406 -24.820312 48.984375 -24.445312 48.984375 -24.125 L 48.984375 -1.140625 C 48.984375 -0.378906 48.601562 0 47.84375 0 L 44.03125 0 C 43.28125 0 42.90625 -0.378906 42.90625 -1.140625 L 42.90625 -16.109375 L 13.515625 -16.109375 L 13.515625 -1.140625 C 13.515625 -0.378906 13.140625 0 12.390625 0 L 8.5 0 C 7.738281 0 7.359375 -0.378906 7.359375 -1.140625 L 7.359375 -24.125 C 7.359375 -24.445312 7.398438 -24.820312 7.484375 -25.25 C 7.566406 -25.6875 7.660156 -26.039062 7.765625 -26.3125 L 19.03125 -54.484375 C 19.132812 -54.753906 19.347656 -54.992188 19.671875 -55.203125 C 19.992188 -55.421875 20.289062 -55.53125 20.5625 -55.53125 Z M 42.90625 -22.1875 L 42.90625 -24.125 L 32.78125 -49.375 L 23.640625 -49.375 L 13.515625 -24.125 L 13.515625 -22.1875 Z M 42.90625 -22.1875 "/></g></g></g><g fill="#ffffe4" fill-opacity="1"><g transform="translate(187.152573, 73.237662)"><g><path d="M 49.0625 -39.984375 C 49.0625 -39.234375 48.679688 -38.859375 47.921875 -38.859375 L 44.03125 -38.859375 C 43.28125 -38.859375 42.90625 -39.234375 42.90625 -39.984375 L 42.90625 -43.796875 C 42.851562 -45.359375 42.285156 -46.675781 41.203125 -47.75 C 40.128906 -48.832031 38.804688 -49.375 37.234375 -49.375 L 19.1875 -49.375 C 17.625 -49.375 16.285156 -48.820312 15.171875 -47.71875 C 14.066406 -46.613281 13.515625 -45.28125 13.515625 -43.71875 L 13.515625 -11.8125 C 13.515625 -10.25 14.066406 -8.914062 15.171875 -7.8125 C 16.285156 -6.707031 17.625 -6.15625 19.1875 -6.15625 L 37.234375 -6.15625 C 38.804688 -6.15625 40.128906 -6.679688 41.203125 -7.734375 C 42.285156 -8.785156 42.851562 -10.09375 42.90625 -11.65625 L 42.90625 -15.546875 C 42.90625 -15.816406 43.007812 -16.070312 43.21875 -16.3125 C 43.4375 -16.550781 43.707031 -16.671875 44.03125 -16.671875 L 47.921875 -16.671875 C 48.242188 -16.671875 48.515625 -16.550781 48.734375 -16.3125 C 48.953125 -16.070312 49.0625 -15.816406 49.0625 -15.546875 L 49.0625 -11.65625 C 49.0625 -10.039062 48.734375 -8.53125 48.078125 -7.125 C 47.429688 -5.71875 46.582031 -4.488281 45.53125 -3.4375 C 44.476562 -2.382812 43.238281 -1.546875 41.8125 -0.921875 C 40.382812 -0.304688 38.859375 0 37.234375 0 L 19.1875 0 C 17.5625 0 16.035156 -0.304688 14.609375 -0.921875 C 13.179688 -1.546875 11.941406 -2.382812 10.890625 -3.4375 C 9.835938 -4.488281 9 -5.742188 8.375 -7.203125 C 7.757812 -8.660156 7.453125 -10.195312 7.453125 -11.8125 L 7.453125 -43.71875 C 7.453125 -45.332031 7.757812 -46.851562 8.375 -48.28125 C 9 -49.71875 9.835938 -50.972656 10.890625 -52.046875 C 11.941406 -53.128906 13.179688 -53.976562 14.609375 -54.59375 C 16.035156 -55.21875 17.5625 -55.53125 19.1875 -55.53125 L 37.234375 -55.53125 C 38.859375 -55.53125 40.382812 -55.21875 41.8125 -54.59375 C 43.238281 -53.976562 44.476562 -53.144531 45.53125 -52.09375 C 46.582031 -51.039062 47.429688 -49.796875 48.078125 -48.359375 C 48.734375 -46.929688 49.0625 -45.410156 49.0625 -43.796875 Z M 49.0625 -39.984375 "/></g></g></g><g fill="#ffffe4" fill-opacity="1"><g transform="translate(243.568555, 73.237662)"><g><path d="M 41.359375 -0.96875 L 28.015625 -24.6875 L 14 -24.6875 L 14 -1.140625 C 14 -0.378906 13.625 0 12.875 0 L 8.984375 0 C 8.710938 0 8.457031 -0.101562 8.21875 -0.3125 C 7.976562 -0.53125 7.859375 -0.804688 7.859375 -1.140625 L 7.859375 -54.40625 C 7.859375 -54.726562 7.976562 -54.992188 8.21875 -55.203125 C 8.457031 -55.421875 8.710938 -55.53125 8.984375 -55.53125 L 12.875 -55.53125 C 13.625 -55.53125 14 -55.15625 14 -54.40625 L 14 -30.84375 L 28.015625 -30.84375 L 41.359375 -54.5625 C 41.523438 -54.832031 41.769531 -55.0625 42.09375 -55.25 C 42.414062 -55.4375 42.738281 -55.53125 43.0625 -55.53125 L 47.84375 -55.53125 C 48.164062 -55.53125 48.378906 -55.4375 48.484375 -55.25 C 48.597656 -55.0625 48.570312 -54.832031 48.40625 -54.5625 L 33.359375 -27.765625 L 48.40625 -0.96875 C 48.789062 -0.320312 48.601562 0 47.84375 0 L 43.0625 0 C 42.3125 0 41.742188 -0.320312 41.359375 -0.96875 Z M 41.359375 -0.96875 "/></g></g></g><g fill="#ffffe4" fill-opacity="1"><g transform="translate(299.984536, 73.237662)"><g><path d="M 42.90625 -1.140625 L 42.90625 -24.6875 L 13.515625 -24.6875 L 13.515625 -1.140625 C 13.515625 -0.378906 13.140625 0 12.390625 0 L 8.578125 0 C 7.828125 0 7.453125 -0.378906 7.453125 -1.140625 L 7.453125 -54.40625 C 7.453125 -55.15625 7.828125 -55.53125 8.578125 -55.53125 L 12.390625 -55.53125 C 13.140625 -55.53125 13.515625 -55.15625 13.515625 -54.40625 L 13.515625 -30.84375 L 42.90625 -30.84375 L 42.90625 -54.40625 C 42.90625 -55.15625 43.28125 -55.53125 44.03125 -55.53125 L 47.921875 -55.53125 C 48.679688 -55.53125 49.0625 -55.15625 49.0625 -54.40625 L 49.0625 -1.140625 C 49.0625 -0.378906 48.679688 0 47.921875 0 L 44.03125 0 C 43.28125 0 42.90625 -0.378906 42.90625 -1.140625 Z M 42.90625 -1.140625 "/></g></g></g><g fill="#ffffe4" fill-opacity="1"><g transform="translate(356.319594, 73.237662)"><g><path d="M 7.359375 -1.140625 L 7.359375 -54.40625 C 7.359375 -54.726562 7.476562 -54.992188 7.71875 -55.203125 C 7.96875 -55.421875 8.226562 -55.53125 8.5 -55.53125 L 37.234375 -55.53125 C 38.859375 -55.53125 40.382812 -55.21875 41.8125 -54.59375 C 43.238281 -53.976562 44.492188 -53.128906 45.578125 -52.046875 C 46.660156 -50.972656 47.507812 -49.71875 48.125 -48.28125 C 48.75 -46.851562 49.0625 -45.332031 49.0625 -43.71875 L 49.0625 -36.515625 C 49.0625 -34.890625 48.75 -33.347656 48.125 -31.890625 C 47.507812 -30.429688 46.660156 -29.175781 45.578125 -28.125 C 44.492188 -27.070312 43.238281 -26.234375 41.8125 -25.609375 C 40.382812 -24.992188 38.859375 -24.6875 37.234375 -24.6875 L 13.515625 -24.6875 L 13.515625 -1.140625 C 13.515625 -0.378906 13.140625 0 12.390625 0 L 8.5 0 C 8.226562 0 7.96875 -0.101562 7.71875 -0.3125 C 7.476562 -0.53125 7.359375 -0.804688 7.359375 -1.140625 Z M 13.515625 -30.84375 L 37.234375 -30.84375 C 38.804688 -30.84375 40.144531 -31.394531 41.25 -32.5 C 42.351562 -33.601562 42.90625 -34.941406 42.90625 -36.515625 L 42.90625 -43.71875 C 42.90625 -45.28125 42.351562 -46.613281 41.25 -47.71875 C 40.144531 -48.820312 38.804688 -49.375 37.234375 -49.375 L 13.515625 -49.375 Z M 13.515625 -30.84375 "/></g></g></g><g fill="#ffffe4" fill-opacity="1"><g transform="translate(412.73556, 73.237662)"><g><path d="M 49.0625 -39.984375 C 49.0625 -39.234375 48.679688 -38.859375 47.921875 -38.859375 L 44.03125 -38.859375 C 43.28125 -38.859375 42.90625 -39.234375 42.90625 -39.984375 L 42.90625 -43.796875 C 42.851562 -45.359375 42.285156 -46.675781 41.203125 -47.75 C 40.128906 -48.832031 38.804688 -49.375 37.234375 -49.375 L 19.1875 -49.375 C 17.625 -49.375 16.285156 -48.820312 15.171875 -47.71875 C 14.066406 -46.613281 13.515625 -45.28125 13.515625 -43.71875 L 13.515625 -11.8125 C 13.515625 -10.25 14.066406 -8.914062 15.171875 -7.8125 C 16.285156 -6.707031 17.625 -6.15625 19.1875 -6.15625 L 37.234375 -6.15625 C 38.804688 -6.15625 40.128906 -6.679688 41.203125 -7.734375 C 42.285156 -8.785156 42.851562 -10.09375 42.90625 -11.65625 L 42.90625 -15.546875 C 42.90625 -15.816406 43.007812 -16.070312 43.21875 -16.3125 C 43.4375 -16.550781 43.707031 -16.671875 44.03125 -16.671875 L 47.921875 -16.671875 C 48.242188 -16.671875 48.515625 -16.550781 48.734375 -16.3125 C 48.953125 -16.070312 49.0625 -15.816406 49.0625 -15.546875 L 49.0625 -11.65625 C 49.0625 -10.039062 48.734375 -8.53125 48.078125 -7.125 C 47.429688 -5.71875 46.582031 -4.488281 45.53125 -3.4375 C 44.476562 -2.382812 43.238281 -1.546875 41.8125 -0.921875 C 40.382812 -0.304688 38.859375 0 37.234375 0 L 19.1875 0 C 17.5625 0 16.035156 -0.304688 14.609375 -0.921875 C 13.179688 -1.546875 11.941406 -2.382812 10.890625 -3.4375 C 9.835938 -4.488281 9 -5.742188 8.375 -7.203125 C 7.757812 -8.660156 7.453125 -10.195312 7.453125 -11.8125 L 7.453125 -43.71875 C 7.453125 -45.332031 7.757812 -46.851562 8.375 -48.28125 C 9 -49.71875 9.835938 -50.972656 10.890625 -52.046875 C 11.941406 -53.128906 13.179688 -53.976562 14.609375 -54.59375 C 16.035156 -55.21875 17.5625 -55.53125 19.1875 -55.53125 L 37.234375 -55.53125 C 38.859375 -55.53125 40.382812 -55.21875 41.8125 -54.59375 C 43.238281 -53.976562 44.476562 -53.144531 45.53125 -52.09375 C 46.582031 -51.039062 47.429688 -49.796875 48.078125 -48.359375 C 48.734375 -46.929688 49.0625 -45.410156 49.0625 -43.796875 Z M 49.0625 -39.984375 "/></g></g></g><g fill="#ffffe4" fill-opacity="1"><g transform="translate(469.151527, 73.237662)"><g><path d="M 10.125 -2.828125 C 8.175781 -4.773438 7.203125 -7.9375 7.203125 -12.3125 L 7.203125 -42.34375 C 7.203125 -46.976562 8.3125 -50.320312 10.53125 -52.375 C 12.6875 -54.476562 16.242188 -55.53125 21.203125 -55.53125 L 35.53125 -55.53125 C 40.394531 -55.53125 43.90625 -54.503906 46.0625 -52.453125 C 48.164062 -50.515625 49.21875 -47.144531 49.21875 -42.34375 L 49.21875 -19.421875 C 49.21875 -15.921875 48.515625 -13.46875 47.109375 -12.0625 C 45.597656 -10.65625 43.382812 -9.953125 40.46875 -9.953125 C 38.582031 -9.953125 36.96875 -10.410156 35.625 -11.328125 C 34.863281 -11.921875 34.296875 -12.625 33.921875 -13.4375 L 33.359375 -14.734375 L 32.21875 -13.921875 C 31.945312 -13.765625 31.703125 -13.617188 31.484375 -13.484375 C 31.273438 -13.347656 31.035156 -13.222656 30.765625 -13.109375 C 29.628906 -12.679688 28.222656 -12.46875 26.546875 -12.46875 C 23.640625 -12.46875 21.484375 -13.222656 20.078125 -14.734375 C 18.722656 -16.242188 18.046875 -18.859375 18.046875 -22.578125 L 18.046875 -29.625 C 18.046875 -32.8125 18.476562 -35.242188 19.34375 -36.921875 C 20.257812 -38.703125 21.664062 -39.914062 23.5625 -40.5625 C 25.394531 -41.207031 28.035156 -41.53125 31.484375 -41.53125 L 36.75 -41.53125 C 37.507812 -41.53125 37.890625 -41.148438 37.890625 -40.390625 L 37.890625 -18.453125 C 37.890625 -17.210938 38.078125 -16.320312 38.453125 -15.78125 C 38.828125 -15.238281 39.472656 -14.96875 40.390625 -14.96875 C 40.660156 -14.96875 40.984375 -14.992188 41.359375 -15.046875 C 41.742188 -15.109375 42.039062 -15.273438 42.25 -15.546875 L 42.34375 -15.625 L 42.421875 -15.78125 C 42.640625 -16.050781 42.773438 -16.492188 42.828125 -17.109375 C 42.878906 -17.734375 42.90625 -18.316406 42.90625 -18.859375 L 42.90625 -42.578125 C 42.90625 -44.796875 42.390625 -46.441406 41.359375 -47.515625 C 40.390625 -48.597656 38.71875 -49.140625 36.34375 -49.140625 L 20.3125 -49.140625 C 17.882812 -49.140625 16.132812 -48.597656 15.0625 -47.515625 C 14.03125 -46.378906 13.515625 -44.734375 13.515625 -42.578125 L 13.515625 -12.0625 C 13.515625 -8.28125 15.40625 -6.390625 19.1875 -6.390625 L 34.25 -6.390625 C 35 -6.390625 35.375 -6.015625 35.375 -5.265625 L 35.375 -1.140625 C 35.375 -0.378906 35 0 34.25 0 L 19.1875 0 C 15.03125 0 12.007812 -0.941406 10.125 -2.828125 Z M 30.515625 -36.34375 C 28.140625 -36.34375 26.46875 -35.941406 25.5 -35.140625 C 24.632812 -34.328125 24.203125 -32.648438 24.203125 -30.109375 L 24.203125 -22.09375 C 24.203125 -20.644531 24.421875 -19.566406 24.859375 -18.859375 C 25.234375 -18.160156 26.066406 -17.8125 27.359375 -17.8125 C 28.816406 -17.8125 29.894531 -18.242188 30.59375 -19.109375 C 31.351562 -19.972656 31.734375 -21 31.734375 -22.1875 L 31.734375 -36.34375 Z M 30.515625 -36.34375 "/></g></g></g><g fill="#ffffe4" fill-opacity="1"><g transform="translate(525.582481, 73.237662)"><g/></g></g><g fill="#ffffe4" fill-opacity="1"><g transform="translate(63.127115, 180.470058)"><g><path d="M 50.078125 -77.734375 C 50.765625 -77.734375 51.425781 -77.503906 52.0625 -77.046875 C 52.707031 -76.597656 53.144531 -76.070312 53.375 -75.46875 L 69.6875 -34.90625 C 69.914062 -34.300781 70.125 -33.523438 70.3125 -32.578125 C 70.5 -31.628906 70.59375 -30.816406 70.59375 -30.140625 L 70.59375 -2.5 C 70.59375 -1.8125 70.347656 -1.222656 69.859375 -0.734375 C 69.367188 -0.242188 68.78125 0 68.09375 0 L 57.453125 0 C 56.765625 0 56.175781 -0.242188 55.6875 -0.734375 C 55.195312 -1.222656 54.953125 -1.8125 54.953125 -2.5 L 54.953125 -15.53125 L 23.90625 -15.53125 L 23.90625 -2.5 C 23.90625 -1.8125 23.660156 -1.222656 23.171875 -0.734375 C 22.679688 -0.242188 22.097656 0 21.421875 0 L 10.875 0 C 10.195312 0 9.613281 -0.242188 9.125 -0.734375 C 8.632812 -1.222656 8.390625 -1.8125 8.390625 -2.5 L 8.390625 -30.140625 C 8.390625 -30.816406 8.484375 -31.628906 8.671875 -32.578125 C 8.859375 -33.523438 9.066406 -34.300781 9.296875 -34.90625 L 25.5 -75.46875 C 25.800781 -76.070312 26.269531 -76.597656 26.90625 -77.046875 C 27.550781 -77.503906 28.210938 -77.734375 28.890625 -77.734375 Z M 24.46875 -31.046875 L 54.390625 -31.046875 L 41.921875 -62.203125 L 36.9375 -62.203125 Z M 24.46875 -31.046875 "/></g></g></g><g fill="#ffffe4" fill-opacity="1"><g transform="translate(142.102746, 180.470058)"><g><path d="M 10.875 0 C 10.195312 0 9.613281 -0.242188 9.125 -0.734375 C 8.632812 -1.222656 8.390625 -1.8125 8.390625 -2.5 L 8.390625 -75.234375 C 8.390625 -75.921875 8.632812 -76.507812 9.125 -77 C 9.613281 -77.488281 10.195312 -77.734375 10.875 -77.734375 L 50.53125 -77.734375 C 53.25 -77.734375 55.835938 -77.203125 58.296875 -76.140625 C 60.753906 -75.085938 62.890625 -73.65625 64.703125 -71.84375 C 66.515625 -70.03125 67.945312 -67.914062 69 -65.5 C 70.0625 -63.082031 70.59375 -60.472656 70.59375 -57.671875 L 70.59375 -20.0625 C 70.59375 -17.257812 70.0625 -14.648438 69 -12.234375 C 67.945312 -9.816406 66.515625 -7.703125 64.703125 -5.890625 C 62.890625 -4.078125 60.753906 -2.640625 58.296875 -1.578125 C 55.835938 -0.523438 53.25 0 50.53125 0 Z M 23.90625 -15.53125 L 50.53125 -15.53125 C 51.820312 -15.53125 52.878906 -15.960938 53.703125 -16.828125 C 54.535156 -17.691406 54.953125 -18.769531 54.953125 -20.0625 L 54.953125 -57.671875 C 54.953125 -58.960938 54.535156 -60.039062 53.703125 -60.90625 C 52.878906 -61.769531 51.820312 -62.203125 50.53125 -62.203125 L 23.90625 -62.203125 Z M 23.90625 -15.53125 "/></g></g></g><g fill="#ffffe4" fill-opacity="1"><g transform="translate(221.078378, 180.470058)"><g><path d="M 68.09375 -77.734375 C 68.78125 -77.734375 69.382812 -77.503906 69.90625 -77.046875 C 70.363281 -76.523438 70.59375 -75.921875 70.59375 -75.234375 L 70.59375 -2.5 C 70.59375 -1.8125 70.363281 -1.242188 69.90625 -0.796875 C 69.382812 -0.265625 68.78125 0 68.09375 0 L 57.5625 0 C 56.882812 0 56.316406 -0.265625 55.859375 -0.796875 C 55.328125 -1.242188 55.0625 -1.8125 55.0625 -2.5 L 55.0625 -50.875 L 45.78125 -36.140625 C 45.40625 -35.535156 44.875 -35.007812 44.1875 -34.5625 C 43.4375 -34.1875 42.71875 -34 42.03125 -34 L 37.046875 -34 C 36.367188 -34 35.65625 -34.1875 34.90625 -34.5625 C 34.21875 -35.007812 33.6875 -35.535156 33.3125 -36.140625 L 23.90625 -50.984375 L 23.90625 -2.5 C 23.90625 -1.8125 23.679688 -1.242188 23.234375 -0.796875 C 22.703125 -0.265625 22.097656 0 21.421875 0 L 10.875 0 C 10.195312 0 9.628906 -0.265625 9.171875 -0.796875 C 8.648438 -1.242188 8.390625 -1.8125 8.390625 -2.5 L 8.390625 -75.234375 C 8.390625 -75.921875 8.648438 -76.523438 9.171875 -77.046875 C 9.628906 -77.503906 10.195312 -77.734375 10.875 -77.734375 L 21.421875 -77.734375 L 22.203125 -77.625 C 22.585938 -77.539062 22.96875 -77.347656 23.34375 -77.046875 C 24.09375 -76.671875 24.660156 -76.179688 25.046875 -75.578125 L 39.546875 -50.53125 L 54.046875 -75.578125 C 54.421875 -76.179688 54.953125 -76.671875 55.640625 -77.046875 L 56.546875 -77.5 C 56.847656 -77.65625 57.1875 -77.734375 57.5625 -77.734375 Z M 68.09375 -77.734375 "/></g></g></g><g fill="#ffffe4" fill-opacity="1"><g transform="translate(300.054009, 180.470058)"><g><path d="M 69.125 -64.59375 C 69.125 -63.90625 68.875 -63.332031 68.375 -62.875 C 67.882812 -62.425781 67.300781 -62.203125 66.625 -62.203125 L 47.25 -62.203125 L 47.25 -15.53125 L 66.625 -15.53125 C 67.300781 -15.53125 67.882812 -15.28125 68.375 -14.78125 C 68.875 -14.289062 69.125 -13.707031 69.125 -13.03125 L 69.125 -2.5 C 69.125 -1.8125 68.875 -1.222656 68.375 -0.734375 C 67.882812 -0.242188 67.300781 0 66.625 0 L 12.46875 0 C 11.78125 0 11.191406 -0.242188 10.703125 -0.734375 C 10.210938 -1.222656 9.96875 -1.8125 9.96875 -2.5 L 9.96875 -13.03125 C 9.96875 -13.707031 10.210938 -14.289062 10.703125 -14.78125 C 11.191406 -15.28125 11.78125 -15.53125 12.46875 -15.53125 L 31.734375 -15.53125 L 31.734375 -62.203125 L 12.46875 -62.203125 C 11.78125 -62.203125 11.191406 -62.425781 10.703125 -62.875 C 10.210938 -63.332031 9.96875 -63.90625 9.96875 -64.59375 L 9.96875 -75.234375 C 9.96875 -75.921875 10.210938 -76.507812 10.703125 -77 C 11.191406 -77.488281 11.78125 -77.734375 12.46875 -77.734375 L 66.625 -77.734375 C 67.300781 -77.734375 67.882812 -77.488281 68.375 -77 C 68.875 -76.507812 69.125 -75.921875 69.125 -75.234375 Z M 69.125 -64.59375 "/></g></g></g><g fill="#ffffe4" fill-opacity="1"><g transform="translate(379.02964, 180.470058)"><g><path d="M 28.4375 -31.046875 C 27.15625 -31.046875 26.078125 -30.609375 25.203125 -29.734375 C 24.335938 -28.867188 23.90625 -27.796875 23.90625 -26.515625 L 23.90625 -15.53125 L 68.09375 -15.53125 C 68.78125 -15.53125 69.367188 -15.28125 69.859375 -14.78125 C 70.347656 -14.289062 70.59375 -13.707031 70.59375 -13.03125 L 70.59375 -2.375 C 70.59375 -1.695312 70.347656 -1.128906 69.859375 -0.671875 C 69.367188 -0.222656 68.78125 0 68.09375 0 L 10.875 0 C 10.195312 0 9.613281 -0.222656 9.125 -0.671875 C 8.632812 -1.128906 8.390625 -1.695312 8.390625 -2.375 L 8.390625 -26.515625 C 8.390625 -29.304688 8.914062 -31.910156 9.96875 -34.328125 C 11.03125 -36.742188 12.46875 -38.859375 14.28125 -40.671875 C 16.09375 -42.492188 18.207031 -43.929688 20.625 -44.984375 C 23.039062 -46.046875 25.644531 -46.578125 28.4375 -46.578125 L 50.53125 -46.578125 C 51.820312 -46.578125 52.898438 -47.007812 53.765625 -47.875 C 54.628906 -48.738281 55.0625 -49.816406 55.0625 -51.109375 L 55.0625 -57.671875 C 55.0625 -58.960938 54.628906 -60.019531 53.765625 -60.84375 C 52.898438 -61.675781 51.820312 -62.09375 50.53125 -62.09375 L 28.4375 -62.09375 C 27.15625 -62.09375 26.078125 -61.675781 25.203125 -60.84375 C 24.335938 -60.019531 23.90625 -58.960938 23.90625 -57.671875 L 23.90625 -56.765625 C 23.90625 -56.085938 23.675781 -55.519531 23.21875 -55.0625 C 22.769531 -54.613281 22.207031 -54.390625 21.53125 -54.390625 L 10.875 -54.390625 C 10.195312 -54.390625 9.613281 -54.613281 9.125 -55.0625 C 8.632812 -55.519531 8.390625 -56.085938 8.390625 -56.765625 L 8.390625 -57.671875 C 8.390625 -60.390625 8.914062 -62.957031 9.96875 -65.375 C 11.03125 -67.789062 12.46875 -69.90625 14.28125 -71.71875 C 16.09375 -73.539062 18.207031 -74.976562 20.625 -76.03125 C 23.039062 -77.09375 25.644531 -77.625 28.4375 -77.625 L 50.53125 -77.625 C 53.25 -77.625 55.835938 -77.09375 58.296875 -76.03125 C 60.753906 -74.976562 62.890625 -73.539062 64.703125 -71.71875 C 66.515625 -69.90625 67.945312 -67.789062 69 -65.375 C 70.0625 -62.957031 70.59375 -60.390625 70.59375 -57.671875 L 70.59375 -51.109375 C 70.59375 -48.304688 70.0625 -45.695312 69 -43.28125 C 67.945312 -40.863281 66.515625 -38.75 64.703125 -36.9375 C 62.890625 -35.125 60.753906 -33.6875 58.296875 -32.625 C 55.835938 -31.570312 53.25 -31.046875 50.53125 -31.046875 Z M 28.4375 -31.046875 "/></g></g></g><g fill="#ffffe4" fill-opacity="1"><g transform="translate(458.005272, 180.470058)"><g><path d="M 50.53125 -46.578125 C 53.25 -46.578125 55.816406 -46.046875 58.234375 -44.984375 C 60.660156 -43.929688 62.78125 -42.492188 64.59375 -40.671875 C 66.40625 -38.859375 67.835938 -36.742188 68.890625 -34.328125 C 69.953125 -31.910156 70.484375 -29.304688 70.484375 -26.515625 L 70.484375 -19.9375 C 70.484375 -17.21875 69.953125 -14.648438 68.890625 -12.234375 C 67.835938 -9.816406 66.40625 -7.703125 64.59375 -5.890625 C 62.78125 -4.078125 60.660156 -2.640625 58.234375 -1.578125 C 55.816406 -0.523438 53.25 0 50.53125 0 L 28.328125 0 C 25.609375 0 23.039062 -0.523438 20.625 -1.578125 C 18.207031 -2.640625 16.09375 -4.078125 14.28125 -5.890625 C 12.46875 -7.703125 11.03125 -9.816406 9.96875 -12.234375 C 8.914062 -14.648438 8.390625 -17.21875 8.390625 -19.9375 L 8.390625 -20.84375 C 8.390625 -21.53125 8.613281 -22.097656 9.0625 -22.546875 C 9.519531 -23.003906 10.085938 -23.234375 10.765625 -23.234375 L 21.421875 -23.234375 C 22.097656 -23.234375 22.679688 -23.003906 23.171875 -22.546875 C 23.660156 -22.097656 23.90625 -21.53125 23.90625 -20.84375 L 23.90625 -19.9375 C 23.90625 -18.65625 24.335938 -17.597656 25.203125 -16.765625 C 26.078125 -15.941406 27.117188 -15.53125 28.328125 -15.53125 L 50.53125 -15.53125 C 51.820312 -15.53125 52.878906 -15.941406 53.703125 -16.765625 C 54.535156 -17.597656 54.953125 -18.65625 54.953125 -19.9375 L 54.953125 -26.515625 C 54.953125 -27.796875 54.535156 -28.867188 53.703125 -29.734375 C 52.878906 -30.609375 51.820312 -31.046875 50.53125 -31.046875 L 10.765625 -31.046875 C 10.085938 -31.046875 9.519531 -31.289062 9.0625 -31.78125 C 8.613281 -32.269531 8.390625 -32.859375 8.390625 -33.546875 L 8.390625 -75.234375 C 8.390625 -75.921875 8.613281 -76.488281 9.0625 -76.9375 C 9.519531 -77.394531 10.085938 -77.625 10.765625 -77.625 L 68.09375 -77.625 C 68.78125 -77.625 69.347656 -77.394531 69.796875 -76.9375 C 70.253906 -76.488281 70.484375 -75.921875 70.484375 -75.234375 L 70.484375 -64.59375 C 70.484375 -63.90625 70.253906 -63.316406 69.796875 -62.828125 C 69.347656 -62.335938 68.78125 -62.09375 68.09375 -62.09375 L 23.90625 -62.09375 L 23.90625 -46.578125 Z M 50.53125 -46.578125 "/></g></g></g><g fill="#ffffe4" fill-opacity="1"><g transform="translate(536.872579, 180.470058)"><g/></g></g></svg>